<?xml version="1.0" encoding="utf-8"?>
<!-- Generator: Adobe Illustrator 24.0.1, SVG Export Plug-In . SVG Version: 6.00 Build 0)  -->
<svg version="1.2" baseProfile="tiny" id="Layer_1" xmlns="http://www.w3.org/2000/svg" xmlns:xlink="http://www.w3.org/1999/xlink"
	 x="0px" y="0px" viewBox="0 0 182.31 237.5" xml:space="preserve">
<g>
	<path fill="#FF9F7F" d="M0,100.57c1.74,4.82,1.67,9.91,2.04,14.89c2.09,27.99,20.4,56.47,51.26,65.11
		c23.86,6.68,45.2,0.85,64.06-14.64c5.75-4.72,10.56-10.42,14.88-16.57c6.25-8.91,14.61-13.76,25.96-12.91
		c12.18,0.91,23.3,11.97,24.04,24.18c0.43,7-1.25,13.23-5.17,19.04c-20.31,30.05-48.14,49.19-83.78,55.75
		c-25.98,4.79-51.36,1.31-75.26-10.47c-5.03-2.48-9.76-5.59-14.6-8.45c-1.09-0.64-2.01-1.6-3.42-1.39C0,176.93,0,138.75,0,100.57z"
		/>
	<path fill="#F9BE4A" d="M37.03,0.05c5.51-0.12,9.77,2.34,13.17,6.47c0.92,1.11,1.72,2.35,2.39,3.63
		c5.93,11.22,12.04,22.36,17.65,33.74c5.06,10.27,0.07,21.47-10.41,24.41c-7.22,2.03-15.21-0.88-19.17-7.92
		C34,48.53,27.71,36.46,21.53,24.36C15.65,12.84,24.77-0.9,37.03,0.05z"/>
</g>
</svg>
