<?xml version="1.0" encoding="utf-8"?>
<!-- Generator: Adobe Illustrator 24.0.1, SVG Export Plug-In . SVG Version: 6.00 Build 0)  -->
<svg version="1.2" baseProfile="tiny" id="Layer_1" xmlns="http://www.w3.org/2000/svg" xmlns:xlink="http://www.w3.org/1999/xlink"
	 x="0px" y="0px" viewBox="0 0 258.24 150.9" xml:space="preserve">
<g>
	<path fill="#FBBC48" d="M37.8,67.56c3.09-8.24,7.83-15.59,13.19-22.44C67.53,24,88.66,9.45,114.94,3.44
		c39.03-8.92,74.13-0.59,104.46,25.9c21.24,18.55,33.3,42.28,37.62,69.93c2.52,16.15,1.04,32.18-3.4,47.92
		c-0.35,1.23-0.81,2.41-0.67,3.71c-73.45,0-146.91,0-220.36,0c-3.72-13.07-5.98-26.33-5.39-40c0.13-3.07,0.26-6.12,0.95-9.12
		c3.91,0.82,7.24,3.2,11.23,3.98c9.63,1.87,18.94-5.22,19.53-14.87c0.52-8.49-3.11-14.17-10.64-17.85
		C44.74,71.32,40.85,70.22,37.8,67.56z"/>
	<path fill="#AB7D92" d="M37.8,67.56c3.05,2.66,6.94,3.76,10.47,5.49c7.52,3.67,11.16,9.35,10.64,17.85
		c-0.59,9.65-9.9,16.74-19.53,14.87c-3.99-0.78-7.32-3.15-11.23-3.98c-5.45-3.31-11.53-5.28-17.2-8.13
		c-4.56-2.29-8.13-5.44-9.84-10.37c-2.15-6.19-1.2-11.93,3.21-16.74c4.31-4.7,9.69-6.75,16.2-5.35c3.78,0.81,7.14,2.6,10.63,4.08
		C33.32,66.2,35.39,67.37,37.8,67.56z"/>
</g>
</svg>
