<?xml version="1.0" encoding="utf-8"?>
<!-- Generator: Adobe Illustrator 24.0.1, SVG Export Plug-In . SVG Version: 6.00 Build 0)  -->
<svg version="1.2" baseProfile="tiny" id="Layer_1" xmlns="http://www.w3.org/2000/svg" xmlns:xlink="http://www.w3.org/1999/xlink"
	 x="0px" y="0px" viewBox="0 0 432.41 252.98" xml:space="preserve">
<g>
	<path fill="#FF9F7F" d="M211.63,61.11c7.46-3.9,15.6-5.74,23.7-7.6c16.04-3.68,32.39-4.53,48.7-3.21
		c24.01,1.94,46.58,9.09,67.43,21.24c29.93,17.44,52.11,41.98,66.55,73.46c6.93,15.11,11.22,30.94,13.29,47.47
		c1.43,11.43,1.26,22.85,0.66,34.25c-0.38,7.21-1.65,14.4-3.44,21.44c-0.4,1.6-0.84,3.15-0.7,4.81c-105.09,0-210.18,0-315.27,0
		c-1.12-7.46-2.93-14.79-3.76-22.31c-0.3-2.68-0.43-5.37-0.71-8.05c7.25-0.05,14.54-0.15,21.67-1.51
		c26.92-5.13,49.66-17.53,67.33-38.87c15.19-18.35,23.59-39.43,25.46-62.98c1.13-14.17-0.55-28.18-4.99-41.84
		C215.76,71.91,212.92,66.79,211.63,61.11z"/>
	<path fill="#A57790" d="M211.63,61.11c1.29,5.68,4.13,10.79,5.92,16.31c4.44,13.66,6.12,27.67,4.99,41.84
		c-1.88,23.55-10.27,44.63-25.46,62.98c-17.67,21.34-40.41,33.73-67.33,38.87c-7.13,1.36-14.41,1.46-21.67,1.51
		c-15.38-0.81-30.2-3.93-44.11-10.74c-32.76-16.03-53.8-41.85-61.26-77.41C-5.6,94.77,5.23,59.85,34.09,31.32
		C55.12,10.52,81,0.17,110.73,0c31.83-0.18,58.71,11.52,80.98,34.04c6.67,6.74,12.21,14.38,16.84,22.67
		C209.43,58.28,209.95,60.11,211.63,61.11z M113.52,170.03c3.1,0.22,6.1-0.23,9.16-0.81c35.09-6.61,56.66-43.26,44.56-77.78
		c-0.43-1.23-0.83-2.39-1.86-3.25c-0.12-1.68-0.88-3.13-1.62-4.59c-10.93-21.52-36.67-34.72-60.55-31.07
		c-42.12,6.44-64.29,52.35-42.43,88.93C72.48,161.04,90.38,170.75,113.52,170.03z"/>
	<path fill="#FF9E7F" d="M113.52,170.03c3.33-14.47,9.46-27.82,16.83-40.58c8.59-14.89,19.57-27.92,32.4-39.37
		c0.8-0.71,1.75-1.26,2.64-1.88c1.03,0.85,1.43,2.02,1.86,3.24c12.1,34.52-9.47,71.17-44.56,77.78
		C119.61,169.79,116.62,170.24,113.52,170.03z"/>
</g>
</svg>
