<?xml version="1.0" encoding="utf-8"?>
<!-- Generator: Adobe Illustrator 24.0.1, SVG Export Plug-In . SVG Version: 6.00 Build 0)  -->
<svg version="1.2" baseProfile="tiny" id="Layer_1" xmlns="http://www.w3.org/2000/svg" xmlns:xlink="http://www.w3.org/1999/xlink"
	 x="0px" y="0px" viewBox="0 0 176.9 543.35" xml:space="preserve">
<g>
	<path fill="#F9BD48" d="M87.43,508.45c-8.2-3.6-15.6-8.52-22.73-13.86c-14.79-11.08-27.74-24.02-38.43-39.12
		c-12.6-17.78-20.52-37.5-23.99-59.01c-1.8-11.15-2.67-22.36-2.1-33.64c0.8-15.88,4.68-31.16,9.16-46.33
		c8.3-28.1,20.86-54.14,36.93-78.62c7.67-11.68,14.87-23.71,20.45-36.6c5.82-13.45,8.42-27.75,10.85-42.06
		c3.38-19.85,6.21-39.8,12.13-59.12c1.22-3.99,2.3-8.04,4.28-11.75c1.34,1.2,2.68,2.41,4.03,3.6c8.57,7.6,21.83,4.91,26.4-5.59
		c2.93-6.73,1.46-13.04-2.87-18.87c-3.11-4.19-7.09-7.75-9.27-12.63c15.01-20.89,33.79-37.62,55.99-50.52
		c2.77-1.61,5.3-3.82,8.64-4.34c0,178.55,0,357.09,0,535.64c-19.45-1.68-38.37-5.75-56.69-12.53c-0.27-1.88,0.48-3.55,0.99-5.29
		c2.45-8.34,4.96-16.66,7.21-25.05c1.47-5.45-1.92-13.75-6.62-16.8c-7.58-4.92-20.85-3.67-25.49,7c-1.45,3.33-2.31,6.86-3.48,10.28
		C91.09,498.34,90.64,503.89,87.43,508.45z"/>
	<path fill="#AA7C92" d="M112.26,54.86c2.18,4.87,6.15,8.44,9.27,12.63c4.33,5.82,5.8,12.14,2.87,18.87
		c-4.57,10.49-17.83,13.18-26.4,5.59c-1.35-1.2-2.69-2.4-4.03-3.6C86.79,78.29,78.67,68.98,71.1,59.22
		c-2.11-2.73-4.36-5.37-6.28-8.22c-5.52-8.21-4.27-17.91,2.9-23.48c7.22-5.62,17.09-4.87,23.57,2.37
		c5.56,6.22,10.52,12.97,15.77,19.47C108.65,51.32,109.97,53.56,112.26,54.86z"/>
	<path fill="#FF9F7F" d="M87.43,508.45c3.21-4.56,3.66-10.11,5.39-15.2c1.17-3.42,2.03-6.95,3.48-10.28
		c4.64-10.67,17.91-11.92,25.49-7c4.7,3.05,8.09,11.35,6.62,16.8c-2.26,8.39-4.76,16.71-7.21,25.05c-0.51,1.74-1.26,3.42-0.99,5.29
		c-1.97,2.91-2.29,6.45-3.63,9.61c-2.91,6.84-9.27,10.87-16.84,10.62c-6.72-0.22-12.55-4.42-14.79-10.96
		c-1.45-4.24-1.09-8.54,0.09-12.85C86.04,515.89,87.84,512.4,87.43,508.45z"/>
</g>
</svg>
