<?xml version="1.0" encoding="utf-8"?>
<!-- Generator: Adobe Illustrator 24.0.1, SVG Export Plug-In . SVG Version: 6.00 Build 0)  -->
<svg version="1.2" baseProfile="tiny" id="Layer_1" xmlns="http://www.w3.org/2000/svg" xmlns:xlink="http://www.w3.org/1999/xlink"
	 x="0px" y="0px" viewBox="0 0 115.05 355.58" xml:space="preserve">
<g>
	<path fill="#A3768E" d="M87.16,44.26c7.79,3.28,11.67,9.55,13.08,17.52c1.3,7.37,1.17,14.84,0.85,22.29
		c-1.36,32.2-7.26,63.8-12.41,95.51c-2.88,17.73-5.27,35.54-8.74,53.18c-4.76,24.23-10.8,48.17-16.09,72.28
		c-2.29,10.46-3.99,21.04-7.12,31.31c-1.01,3.32-2.26,6.53-3.77,9.63c-2.89,5.93-7.87,8.92-14.3,9.42
		c-6.01,0.47-11.95-0.05-17.82-1.59C14,352.04,7.08,350.57,0,350.01C0,240.56,0,131.11,0,21.65c11.59,1.67,22.99,4.23,34.34,7.04
		c6.11,1.52,12.14,3.34,18.21,5.02c-0.01,2.08-1.1,3.78-1.93,5.57c-1.3,2.78-2.77,5.5-3.74,8.39c-2.74,8.12,0.94,16.46,8.81,20.41
		c7.31,3.68,16.2,1.29,21.06-5.59c2.95-4.16,4.71-8.94,7.12-13.37C84.81,47.4,85.34,45.4,87.16,44.26z"/>
	<path fill="#FF9E7F" d="M87.16,44.26c-1.82,1.13-2.35,3.13-3.29,4.86c-2.42,4.43-4.18,9.21-7.12,13.37
		c-4.87,6.88-13.75,9.27-21.06,5.59c-7.86-3.95-11.55-12.29-8.81-20.41c0.98-2.89,2.45-5.62,3.74-8.39c0.84-1.8,1.93-3.49,1.93-5.57
		c1.14-0.71,1.6-1.86,2.16-3.03c3.06-6.38,6.17-12.73,9.34-19.05c1.63-3.26,3.56-6.33,6.7-8.41c6.91-4.59,14.18-4.28,20.66,0.9
		c5.49,4.39,7.51,12.79,4.51,19.78c-2.14,4.99-4.61,9.85-6.93,14.77C88.15,40.46,86.91,42.12,87.16,44.26z"/>
</g>
</svg>
