<?xml version="1.0" encoding="utf-8"?>
<!-- Generator: Adobe Illustrator 24.0.1, SVG Export Plug-In . SVG Version: 6.00 Build 0)  -->
<svg version="1.2" baseProfile="tiny" id="Layer_1" xmlns="http://www.w3.org/2000/svg" xmlns:xlink="http://www.w3.org/1999/xlink"
	 x="0px" y="0px" viewBox="0 0 348.24 219.28" xml:space="preserve">
<g>
	<path fill="#F9BD49" d="M0.07,172.72c0.38-36.67,9.57-70.78,30.51-101.18c16.94-24.61,39.14-42.77,67.6-52.75
		c17.78-6.23,36.06-8.01,54.75-5.79c37.89,4.51,67.87,23.21,92.37,51.63c17.35,20.13,29.36,43.2,36.79,68.65
		c3.85,13.2,1.54,25.31-8.19,35.34c-17.58,18.12-47.94,11.83-56.89-11.81c-3.67-9.68-6.93-19.51-11.96-28.62
		c-7.31-13.22-16.64-24.66-28.96-33.54c-12.83-9.25-26.98-14.2-42.92-12.7c-12.93,1.22-24.04,6.79-33.53,15.52
		c-13.83,12.72-21.85,28.82-26.46,46.77c-3.09,12.02-3.95,24.26-3.67,36.68c0.35,15.68-5.25,27.83-20.24,35.03
		C27.17,226.57,1.3,210.57,0.1,185.81C-0.11,181.45,0.07,177.08,0.07,172.72z"/>
	<path fill="#A57891" d="M298.87,0.01c3.79-0.16,7.45,1.32,10.69,3.85c10.18,7.93,20.35,15.87,30.47,23.87
		c4.73,3.74,8.14,8.23,8.2,14.67c0.12,12.23-11.6,20.39-23.03,15.97c-2.4-0.93-4.53-2.33-6.53-3.9
		c-10.01-7.85-20.08-15.63-29.97-23.62c-8.36-6.76-9.64-17.64-3.23-25.07C288.79,1.93,293.16-0.01,298.87,0.01z"/>
</g>
</svg>
