<?xml version="1.0" encoding="utf-8"?>
<!-- Generator: Adobe Illustrator 24.0.1, SVG Export Plug-In . SVG Version: 6.00 Build 0)  -->
<svg version="1.2" baseProfile="tiny" id="Layer_1" xmlns="http://www.w3.org/2000/svg" xmlns:xlink="http://www.w3.org/1999/xlink"
	 x="0px" y="0px" viewBox="0 0 378.1 174.18" xml:space="preserve">
<g>
	<path fill="#FF9D7F" d="M171.58,140.54c-37.78-12.89-74.85-27.75-112.4-41.28c-14.06-5.07-27.47-11.68-38.71-21.77
		C9.34,67.5,1.86,55.56,0.38,40.1C-0.64,29.32,0.63,18.78,1.52,8.15C1.75,5.45,1.67,2.72,1.73,0C127.19,0,252.64,0,378.1,0
		c-0.07,4.36-2.66,7.84-4.33,11.56C364.18,32.91,354.92,54.4,345.91,76c-7.69,18.42-18.45,35.02-31.49,50.02
		c-9.5,10.93-21.99,17.57-35.51,22.47c-17.23,6.25-34.84,8.06-52.99,5.57c-6.81-0.93-13.71-1.18-20.26-3.55
		c-0.03-1.48,0.42-2.84,0.98-4.19c1.37-3.34,2.67-6.71,4.02-10.05c1.88-4.66,2.62-9.52,0.87-14.27c-2.61-7.09-8.05-11.5-15.51-11.56
		c-6.77-0.05-12.6,2.96-15.54,9.83c-1.14,2.65-2.38,5.26-3.53,7.91C175.15,132.3,174.08,136.73,171.58,140.54z"/>
	<path fill="#F9BD49" d="M171.58,140.54c2.5-3.81,3.57-8.24,5.36-12.36c1.15-2.65,2.4-5.25,3.53-7.91
		c2.94-6.87,8.76-9.88,15.54-9.83c7.46,0.06,12.9,4.47,15.51,11.56c1.75,4.75,1.01,9.6-0.87,14.27c-1.35,3.35-2.65,6.71-4.02,10.05
		c-0.56,1.35-1.01,2.71-0.98,4.19c-3,3.34-3.68,7.77-5.47,11.68c-2.81,6.11-6.98,10.39-13.87,11.72
		c-10.66,2.06-21.05-8.12-19.31-18.92C167.83,149.92,170.56,145.51,171.58,140.54z"/>
</g>
</svg>
