<?xml version="1.0" encoding="utf-8"?>
<!-- Generator: Adobe Illustrator 24.0.1, SVG Export Plug-In . SVG Version: 6.00 Build 0)  -->
<svg version="1.2" baseProfile="tiny" id="Layer_1" xmlns="http://www.w3.org/2000/svg" xmlns:xlink="http://www.w3.org/1999/xlink"
	 x="0px" y="0px" viewBox="0 0 284.66 129.8" xml:space="preserve">
<g>
	<path fill="#FF9F7F" d="M284.66,65.6c-12.12-2.07-24.19-4.42-36.03-7.68c-7.3-2.01-11.86-8.57-11.95-15.75
		c-0.09-7.3,4.03-13.59,10.71-16.09c4.21-1.58,8.56-1.22,12.86-0.37c8.15,1.61,16.28,3.31,24.42,4.97
		C284.66,42.33,284.66,53.97,284.66,65.6z"/>
	<path fill="#A57790" d="M80.32,129.8C37.54,129,6.36,99.1,0.88,61.91c-2.32-15.74-0.01-30.72,6.63-45.1
		c1.93-4.18,4.56-7.84,8.2-10.73c9.81-7.78,22.95-8.13,32.91-0.89c9.69,7.04,13.46,19.97,9.12,31.66c-1.71,4.6-3.52,9.08-3.39,14.17
		c0.33,12.61,9.95,22.98,22.85,24.31c11.97,1.23,23.92-7.69,26.43-19.72c0.56-2.66,1-5.36,1.8-7.95
		c4.17-13.44,16.47-21.09,30.39-19.02c12.29,1.83,22.17,13.42,22.21,26.58c0.04,13.07-4.24,25.01-10.96,36.02
		c-12.53,20.54-30.92,32.73-54.46,37.3c-1.07,0.21-2.16,0.26-3.25,0.37C85.93,129.25,82.5,129.58,80.32,129.8z"/>
</g>
</svg>
